<?xml version="1.0" encoding="UTF-8"?>
<!DOCTYPE svg PUBLIC "-//W3C//DTD SVG 1.1//EN" "http://www.w3.org/Graphics/SVG/1.1/DTD/svg11.dtd">
<!-- Creator: CorelDRAW -->
<svg xmlns="http://www.w3.org/2000/svg" xml:space="preserve" width="27.398mm" height="27.398mm" version="1.1" style="shape-rendering:geometricPrecision; text-rendering:geometricPrecision; image-rendering:optimizeQuality; fill-rule:evenodd; clip-rule:evenodd"
viewBox="0 0 2739.8 2739.8"
 xmlns:xlink="http://www.w3.org/1999/xlink"
 xmlns:xodm="http://www.corel.com/coreldraw/odm/2003">
 <defs>
  <style type="text/css">
   <![CDATA[
    .fil0 {fill:#C42025}
   ]]>
  </style>
 </defs>
 <g id="Capa_x0020_1">
  <metadata id="CorelCorpID_0Corel-Layer"/>
  <path class="fil0" d="M2074.56 1018.47c-41.64,20.17 -150.33,131.84 -177.67,172.85 59.39,197.43 148.2,326.12 68.76,624.42 -57.72,216.72 -178.46,356.41 -307.73,456.13 -358.77,276.77 -837.44,201.62 -1113.51,-79.36 -631.01,-642.26 35.75,-1680.45 872.82,-1400.02 49.61,16.62 93.92,44.18 139.96,54.61l150.7 -183.33c-39.73,-32.62 -100.85,-59.1 -148.4,-78.13 -207.49,-83.04 -424.26,-104.12 -644.51,-57.18 -817.65,174.22 -1162.51,1194.34 -548.04,1830.71 586.96,607.87 1646.54,334.29 1841.72,-515.5 33.93,-147.73 37.23,-314.97 7.33,-462.04 -34.64,-170.35 -85.63,-236.85 -141.43,-363.16zm608.4 -628.81l-295.8 -36.95 -37.97 -296.89c-34.99,22.2 -357.84,343.52 -365.56,367.14 -46.81,143.44 82.15,83.05 -108,270.21l-747.68 747.61c-42.96,43.17 -171.49,150.25 -65.95,245.03 100.52,90.26 187.42,-21.44 232.78,-67.47 64.91,-65.88 123.47,-122.62 188.3,-188.21l650.38 -651.01c44.63,-34.03 113.85,-8.49 174.45,-20.71 37.76,-7.62 366.6,-340.6 375.05,-368.75zm-976.13 992.8c-24.65,14.69 -174.77,158.75 -187.47,182.08 -41.9,77.02 4.92,160.26 -103.16,272.08 -356.94,369.28 -879.5,-163.24 -510.72,-510.81 119.58,-112.7 203.3,-62.66 272.21,-104.63 26.85,-16.38 169.58,-165.42 183.5,-191.65 -654.74,-218.34 -1079.74,552.93 -646.95,993.19 174.59,177.61 490.42,257.36 756.89,84.06 279.68,-181.88 346.98,-563.84 235.7,-724.32z"/>
 </g>
</svg>
